<svg width="230" height="63" viewBox="0 0 230 63" fill="none" xmlns="http://www.w3.org/2000/svg">
<path d="M110 0H109V63H110V0Z" fill="#002033" fill-opacity="0.6"/>
<path d="M75.3616 29.186C75.0002 29.186 74.7056 28.8884 74.7056 28.5208L74.7095 28.4957V17.2705V17.2204L74.7133 17.1734C74.7467 16.8434 75.0212 16.5812 75.3588 16.5812C75.6954 16.5812 75.9746 16.8434 76.0071 17.1734L76.011 17.2204V17.2705V28.4957L76.0138 28.5208C76.0138 28.8884 75.7202 29.186 75.3616 29.186ZM76.579 14.5083H74.1395C72.0768 14.5083 71.9544 16.3285 71.9544 17.5013V28.2629C71.9544 29.4377 72.0768 31.2569 74.1395 31.2569H76.579C78.6426 31.2569 78.7689 29.4388 78.7689 28.2629V17.5013C78.7679 16.3275 78.6426 14.5083 76.579 14.5083Z" fill="#002033" fill-opacity="0.6"/>
<path d="M30.6671 14.5083H36.2862V16.5886H33.6124V31.2558H30.6671V14.5083Z" fill="#002033" fill-opacity="0.6"/>
<path d="M36.7212 31.256H39.6015L39.8779 26.8042H41.2674L41.5399 31.256H44.4231L42.8854 14.5074H38.2599L36.7212 31.256ZM39.9812 24.9641L40.4889 16.5856H40.6534L41.1583 24.9641H39.9812Z" fill="#002033" fill-opacity="0.6"/>
<path d="M48.6393 25.3919V28.5446C48.6393 28.9749 48.93 29.0981 49.1012 29.0981C49.3738 29.0981 49.5631 28.8318 49.5631 28.5446V24.6504C49.5631 24.1251 49.4809 23.5529 48.3821 23.5529H47.1887V21.7097H48.4251C49.2657 21.7097 49.5631 21.4903 49.5631 20.468V17.1366C49.5631 16.8505 49.3728 16.5894 49.1012 16.5894C48.93 16.5894 48.6393 16.7085 48.6393 17.1366V19.8685H45.6921V17.5021C45.6921 16.3294 45.8202 14.5092 47.88 14.5092H50.3224C52.3851 14.5092 52.5103 16.3294 52.5103 17.5021V20.1829C52.5103 21.9979 51.3934 22.4991 50.5079 22.4522V22.6203C52.4845 22.5691 52.5103 24.2943 52.5103 24.8937V28.2637C52.5103 29.4386 52.3851 31.2578 50.3224 31.2578H47.88C45.8202 31.2578 45.6921 29.4396 45.6921 28.2637V25.3929H48.6393V25.3919Z" fill="#002033" fill-opacity="0.6"/>
<path d="M54.4478 14.5083H61.2641V31.2558H58.5158V16.5886H57.1942V31.2558H54.4478V14.5083Z" fill="#002033" fill-opacity="0.6"/>
<path d="M63.3976 31.2562H66.342V25.5627H68.025C70.0877 25.5627 70.4157 23.7445 70.4157 22.5676V17.4996C70.4157 16.3268 70.0877 14.5066 68.025 14.5066H63.3976V31.2562ZM66.342 23.7174V16.5889H67.1156C67.435 16.5889 67.6664 16.8991 67.6664 17.4233V22.883C67.6664 23.4093 67.435 23.7174 67.1156 23.7174H66.342Z" fill="#002033" fill-opacity="0.6"/>
<path d="M88.1682 14.5083H91.999V31.2558H89.0518V20.7543H88.9466L87.429 31.2558H85.0765L83.5599 20.7543H83.4576V31.2558H80.5093V14.5083H84.3364L86.248 26.2787L88.1682 14.5083Z" fill="#002033" fill-opacity="0.6"/>
<path d="M24.3842 16.2108C24.3507 17.9099 24.1643 19.7008 23.9281 20.7713C24.0132 18.927 23.8085 16.3236 23.4193 14.2903C23.0311 12.257 21.9294 8.86616 21.0506 7.29239C20.2406 8.78784 19.2413 11.7234 18.7182 14.2736C18.1923 16.8217 18.177 19.9066 18.177 20.8329C18.0364 20.0465 17.6874 17.2718 17.7878 14.4783C17.87 12.1724 18.3635 9.80499 18.6331 8.71369C19.665 5.07637 20.8326 2.75175 21.0516 2.37997C21.2705 2.7507 22.7442 5.61419 23.5054 8.6218C24.2637 11.6315 24.4158 14.5138 24.3842 16.2108ZM21.0697 29.2072C20.6126 28.2683 19.9002 26.4763 19.8333 23.712C19.8151 21.0334 20.7962 18.7401 21.085 18.2607C21.3432 18.7401 22.1838 20.7378 22.2852 23.4697C22.354 26.1432 21.544 28.2474 21.0697 29.2072ZM24.6529 8.65939C23.7234 4.2096 21.3882 0.588989 21.0697 0C20.561 0.82918 18.7001 4.02371 17.7553 7.56913C16.7234 11.5229 16.5714 15.0286 16.9262 18.4842C17.2819 21.9357 18.6188 25.48 18.6188 25.48C19.3283 27.3431 20.3936 29.3346 21.085 30.3141C22.0987 28.874 24.4358 24.5767 25.1617 18.9636C25.5652 15.8432 25.5805 13.1081 24.6529 8.65939Z" fill="#002033" fill-opacity="0.6"/>
<path d="M15.3588 31.2535V36.5179C15.3646 36.5106 15.3703 36.5043 15.3789 36.497C17.0639 34.6632 19.796 34.6632 21.4819 36.497C23.1697 38.3277 23.1697 41.304 21.4819 43.1357L21.4618 43.1576V43.1597C21.4513 43.168 21.4436 43.1764 21.4379 43.1837C19.7539 44.9977 17.5564 45.9073 15.3598 45.9073C13.1556 45.9073 10.9465 44.9872 9.26349 43.1628C6.29806 39.9328 5.94328 34.94 8.2068 31.2922C8.5109 30.7993 8.86185 30.3314 9.26349 29.898C10.9465 28.0653 13.1556 27.1526 15.3598 27.1526V14.5989C6.8814 14.5989 0 22.0783 0 31.2953C0 40.5218 6.88044 48.0001 15.3598 48.0001C19.7845 48.0001 23.7664 45.9637 26.5664 42.7117V31.2535H15.3588Z" fill="#002033" fill-opacity="0.6"/>
<path d="M89.2618 44.1029C89.2618 45.6728 88.6018 45.9506 86.9212 45.9506H85.3757V38.7881H86.9212V41.5525H87.1799C88.6997 41.5525 89.2618 41.9352 89.2618 43.3683V44.1029ZM76.3593 40.1409H75.1876V45.9547H73.7172V40.1409H72.4627V38.7809H76.3603V40.1409H76.3593ZM64.4622 43.3951C64.4622 44.8498 63.7783 45.2407 62.2556 45.2407V45.9496H60.752V45.2407C59.2236 45.2407 58.5331 44.8498 58.5331 43.3951V41.1574C58.5331 39.6965 59.196 39.3251 60.752 39.3251V38.7881H62.2556V39.3251C63.8012 39.3251 64.4622 39.6965 64.4622 41.1574V43.3951ZM50.446 40.1409H48.3307V41.5504H50.2225V42.9064H48.3307V44.5957H50.446V45.9547H46.7348V38.7798H50.446V40.1409ZM37.6224 45.9496H36.075V42.8138H35.2809V45.9496H33.7344V38.787H35.2809V41.5514H36.075V38.787H37.6224V45.9496ZM91.9991 37H31V48H92V37H91.9991ZM60.0377 41.1111V43.4043C60.0377 43.8251 60.1623 43.9228 60.5028 43.9228H60.752V40.5844H60.5028C60.1623 40.5854 60.0377 40.6914 60.0377 41.1111ZM87.2655 42.8148H86.9212V44.6842H87.2655C87.6126 44.6842 87.7163 44.5885 87.7163 44.18V43.3189C87.7153 42.9064 87.6126 42.8148 87.2655 42.8148ZM62.4934 40.5854H62.2556V43.9239H62.4934C62.8377 43.9239 62.9614 43.8169 62.9614 43.3951V41.0926C62.9614 40.6718 62.8377 40.5854 62.4934 40.5854Z" fill="#002033" fill-opacity="0.6"/>
<path d="M135.509 29.9135V25.8335H134.064V14.8855H132.772V25.8335H127.043V14.8855H125.751V26.9895H134.234V29.9135H135.509ZM147.303 26.9895V14.8855H146.079L139.925 24.7455V14.8855H138.633V26.9895H139.857L146.011 17.1125V26.9895H147.303ZM157.007 16.6875C159.914 16.7555 160.747 18.1835 160.747 20.5465C160.747 22.9095 159.829 24.3205 157.007 24.3885V16.6875ZM155.715 24.3885C152.876 24.3205 151.958 22.9095 151.958 20.5465C151.958 18.1835 152.791 16.7555 155.715 16.6875V24.3885ZM157.007 27.0575V25.4935C160.577 25.3745 162.039 23.6575 162.039 20.4955C162.039 17.3335 160.509 15.7015 157.007 15.5825V14.4435H155.715V15.5825C152.213 15.7015 150.666 17.3335 150.666 20.4955C150.666 23.6575 152.145 25.3745 155.715 25.4935V27.0575H157.007ZM173.655 18.4385C173.655 16.3135 172.159 14.8855 169.915 14.8855H165.41V26.9895H166.702V22.0085H169.915C172.159 22.0085 173.655 20.5805 173.655 18.4385ZM172.363 18.4385C172.363 19.9515 171.411 20.8525 169.796 20.8525H166.702V16.0415H169.796C171.411 16.0415 172.363 16.9255 172.363 18.4385ZM184.805 20.1045C184.805 18.6255 184.72 17.0955 183.666 16.0415C182.85 15.2255 181.762 14.7835 180.572 14.7835C179.382 14.7835 178.294 15.2255 177.478 16.0415C176.441 17.0785 176.339 18.5575 176.339 20.0025V20.9375C176.339 23.3515 176.373 24.7285 177.478 25.8335C178.294 26.6495 179.365 27.0915 180.572 27.0915C181.779 27.0915 182.85 26.6495 183.666 25.8335C184.771 24.7285 184.805 23.3515 184.805 20.9375V20.1045ZM183.513 21.5325C183.513 22.9265 183.496 24.2355 182.663 25.0685C182.102 25.6295 181.371 25.9355 180.572 25.9355C179.773 25.9355 179.042 25.6295 178.481 25.0685C177.699 24.2865 177.631 23.0965 177.631 21.7875V20.5805C177.631 18.9145 177.631 17.6565 178.481 16.8065C179.042 16.2455 179.79 15.9395 180.572 15.9395C181.354 15.9395 182.102 16.2455 182.663 16.8065C183.462 17.6055 183.513 18.8635 183.513 20.2915V21.5325ZM196.848 23.6745C196.848 22.7565 196.542 22.0085 195.947 21.4305C195.658 21.1415 195.437 21.0055 194.876 20.7675C195.335 20.5635 195.522 20.4615 195.777 20.2065C196.355 19.6625 196.661 18.9315 196.661 18.0645C196.661 16.1605 195.233 14.8855 193.091 14.8855H188.535V26.9895H193.244C195.488 26.9895 196.848 25.7315 196.848 23.6745ZM195.369 18.1325C195.369 19.4585 194.485 20.2405 192.989 20.2405H189.827V16.0415H192.989C194.485 16.0415 195.369 16.8235 195.369 18.1325ZM195.556 23.6065C195.556 24.9665 194.621 25.8335 193.125 25.8335H189.827V21.3965H193.125C194.621 21.3965 195.556 22.2465 195.556 23.6065ZM211.756 26.9895V14.8855H210.464V26.9895H211.756ZM208.849 23.4365C208.849 21.2945 207.37 19.8665 205.109 19.8665H201.862V14.8855H200.57V26.9895H205.109C207.353 26.9895 208.849 25.5615 208.849 23.4365ZM207.54 23.4365C207.54 24.9495 206.605 25.8335 204.99 25.8335H201.862V21.0225H204.99C206.605 21.0225 207.54 21.9065 207.54 23.4365ZM223.457 26.9895V25.8335H217.235V21.4645H222.539V20.3085H217.235V16.0415H223.457V14.8855H215.943V26.9895H223.457ZM133.996 40.4385C133.996 38.3135 132.5 36.8855 130.256 36.8855H125.751V48.9895H127.043V44.0085H130.256C132.5 44.0085 133.996 42.5805 133.996 40.4385ZM132.704 40.4385C132.704 41.9515 131.752 42.8525 130.137 42.8525H127.043V38.0415H130.137C131.752 38.0415 132.704 38.9255 132.704 40.4385ZM144.653 48.9895V47.8335H138.431V43.4645H143.735V42.3085H138.431V38.0415H144.653V36.8855H137.139V48.9895H144.653ZM161.459 48.9895V36.8855H160.167V47.8335H155.39V36.8855H154.081V47.8335H149.304V36.8855H148.012V48.9895H161.459ZM173.157 48.9895V47.8335H166.935V43.4645H172.239V42.3085H166.935V38.0415H173.157V36.8855H165.643V48.9895H173.157ZM184.846 48.9895V36.8855H183.554V42.3085H177.808V36.8855H176.516V48.9895H177.808V43.4645H183.554V48.9895H184.846ZM197.703 48.9895V36.8855H196.479L190.325 46.7455V36.8855H189.033V48.9895H190.257L196.411 39.1125V48.9895H197.703ZM205.231 44.0085H208.223V48.9895H209.515V36.8855H205.01C202.766 36.8855 201.27 38.2795 201.27 40.4385C201.27 42.1725 202.273 43.4305 203.871 43.8215L201.083 48.9895H202.596L205.231 44.0085ZM208.223 42.8525H205.129C203.514 42.8525 202.562 41.9515 202.562 40.4385C202.562 38.9255 203.514 38.0245 205.129 38.0245H208.223V42.8525Z" fill="#002033" fill-opacity="0.6"/>
</svg>
